<?xml version="1.0" encoding="UTF-8"?>
<!DOCTYPE svg PUBLIC "-//W3C//DTD SVG 1.1//EN" "http://www.w3.org/Graphics/SVG/1.1/DTD/svg11.dtd">
<!-- Creator: CorelDRAW 2019 (64-Bit) -->
<svg xmlns="http://www.w3.org/2000/svg" xml:space="preserve" width="76.1359mm" height="78.1291mm" version="1.1" style="shape-rendering:geometricPrecision; text-rendering:geometricPrecision; image-rendering:optimizeQuality; fill-rule:evenodd; clip-rule:evenodd"
viewBox="0 0 6343.09 6509.15"
 xmlns:xlink="http://www.w3.org/1999/xlink"
 xmlns:xodm="http://www.corel.com/coreldraw/odm/2003">
 <defs>
  <style type="text/css">
   <![CDATA[
    .str0 {stroke:#393185;stroke-width:44.09;stroke-miterlimit:22.9256}
    .fil3 {fill:none}
    .fil1 {fill:#E53A24}
    .fil0 {fill:#393185}
    .fil2 {fill:#393185;fill-rule:nonzero}
   ]]>
  </style>
 </defs>
 <g id="Слой_x0020_1">
  <metadata id="CorelCorpID_0Corel-Layer"/>
  <path class="fil0" d="M4301.89 330.65l0 -59.36 0 -175.83c0,-77.21 -40.85,-96.62 -83.34,-95.4 -22.78,0.64 -45.5,1.57 -68.15,2.75 -1509.18,78.74 -2708.74,1327.27 -2708.74,2856.05l408.6 0c0,-1311.84 1030.38,-2382.9 2325.94,-2448.3 11.16,-0.56 22.34,-1.06 33.53,-1.47 77.08,-2.82 92.16,-30.86 92.16,-78.44z"/>
  <path class="fil1" d="M2258.78 2858.86c136.21,0 272.39,0 408.6,0 0,-902.69 731.74,-1634.29 1634.45,-1634.29 850.8,0 1549.92,650.43 1627.06,1481.31 1.14,12.36 2.18,24.78 3.03,37.2 2.87,41.64 16,115.78 77.45,115.78 85.13,0 160.94,0 246.07,0 92.74,0 89.25,-46.29 86.77,-98.82 -1.09,-23.16 -2.59,-46.22 -4.46,-69.16 -85.36,-1049.73 -964.27,-1874.9 -2035.86,-1874.9 -1128.34,0 -2043.1,914.53 -2043.1,2042.88z"/>
  <path class="fil0" d="M4301.69 2858.86l-1225.71 0c0,-677.12 548.81,-1225.74 1225.91,-1225.74 676.89,0 1225.53,548.62 1225.53,1225.74 0,677.13 -548.64,1225.69 -1225.53,1225.69l-0.2 -1225.69z"/>
  <path class="fil2" d="M1091.81 4008.76c0,4.68 -1.23,9.12 -3.95,13.06 -2.71,3.7 -7.64,6.9 -14.54,9.36 -6.9,2.22 -16.26,4.19 -27.84,5.67 -11.59,1.48 -26.37,2.22 -44.11,2.22 -17.5,0 -32.04,-0.73 -43.62,-2.22 -11.58,-1.47 -20.7,-3.45 -27.6,-5.67 -6.65,-2.47 -11.58,-5.67 -14.29,-9.36 -2.96,-3.94 -4.44,-8.38 -4.44,-13.06l0 -760.75 -1.47 0 -269.85 760.01c-1.97,6.17 -4.93,11.34 -9.36,15.53 -4.44,4.19 -10.11,7.39 -17.75,9.86 -7.39,2.22 -17,3.94 -28.34,4.68 -11.58,0.74 -25.63,0.98 -41.89,0.98 -16.51,0 -30.32,-0.49 -41.9,-1.72 -11.58,-1.23 -21.19,-3.2 -28.58,-5.92 -7.39,-2.71 -13.31,-5.91 -17.75,-9.61 -4.19,-3.94 -7.15,-8.62 -8.62,-13.8l-260.49 -760.01 -1.48 0 0 760.75c0,4.68 -1.22,9.12 -3.94,13.06 -2.71,3.7 -7.64,6.9 -14.79,9.36 -7.39,2.22 -16.75,4.19 -28.09,5.67 -11.33,1.48 -25.88,2.22 -43.61,2.22 -17.5,0 -32.04,-0.73 -43.62,-2.22 -11.58,-1.47 -20.94,-3.45 -27.84,-5.67 -6.91,-2.47 -11.83,-5.67 -14.55,-9.36 -2.71,-3.94 -3.94,-8.38 -3.94,-13.06l0 -832.71c0,-24.64 6.41,-43.37 19.47,-56.44 13.06,-13.06 30.31,-19.47 52.25,-19.47l124.2 0c22.18,0 41.4,1.72 57.18,5.42 16.01,3.7 29.82,9.61 41.4,17.99 11.34,8.38 21.19,19.47 28.83,33.28 7.64,13.8 14.54,30.8 20.2,51.01l201.34 556.7 2.96 0 208.49 -555.47c6.16,-20.21 13.06,-37.22 20.45,-51.26 7.64,-13.8 16.26,-25.14 26.12,-33.76 9.86,-8.63 21.69,-14.79 34.99,-18.49 13.55,-3.7 29.33,-5.42 47.07,-5.42l128.15 0c13.06,0 24.15,1.72 33.52,5.17 9.36,3.21 17.25,8.14 23.16,14.79 6.17,6.41 10.6,14.3 13.8,23.66 3.2,9.36 4.68,20.2 4.68,32.28l0 832.71zm394.79 0c0,4.68 -1.48,9.12 -4.68,13.06 -3.21,3.7 -8.38,6.9 -15.53,9.36 -7.15,2.22 -17,4.19 -28.83,5.67 -12.07,1.48 -27.59,2.22 -46.33,2.22 -18.23,0 -33.51,-0.73 -45.83,-2.22 -12.32,-1.47 -22.19,-3.45 -29.33,-5.67 -7.15,-2.47 -12.32,-5.67 -15.53,-9.36 -3.2,-3.94 -4.68,-8.38 -4.68,-13.06l0 -882.74c0,-4.68 1.48,-9.11 4.68,-13.06 3.21,-3.69 8.38,-6.9 16.02,-9.36 7.39,-2.46 17,-4.18 29.08,-5.67 12.08,-1.47 27.36,-2.22 45.59,-2.22 18.74,0 34.26,0.74 46.33,2.22 11.83,1.48 21.69,3.21 28.83,5.67 7.15,2.47 12.32,5.67 15.53,9.36 3.2,3.95 4.68,8.38 4.68,13.06l0 882.74zm979.84 -455.17c0,85.76 -11.1,158.95 -33.52,220.07 -22.43,60.87 -54.46,110.41 -96.36,149.1 -41.9,38.44 -92.91,66.78 -152.8,84.77 -59.88,18 -131.35,27.11 -214.15,27.11l-223.03 0c-16.02,0 -29.33,-4.68 -40.17,-14.05 -10.84,-9.36 -16.26,-24.64 -16.26,-45.84l0 -814.72c0,-21.19 5.42,-36.47 16.26,-45.84 10.85,-9.36 24.15,-14.05 40.17,-14.05l239.53 0c83.3,0 154.03,9.86 211.94,29.33 58.16,19.47 106.96,48.3 146.63,86.5 39.67,38.44 69.99,85.76 90.69,141.95 20.7,56.44 31.06,121.5 31.06,195.67zm-196.66 6.66c0,-44.36 -5.17,-85.27 -15.53,-123.47 -10.35,-37.95 -26.86,-70.72 -49.78,-98.58 -22.92,-27.84 -52.25,-49.78 -87.98,-65.3 -35.97,-15.53 -82.8,-23.41 -141.21,-23.41l-95.87 0 0 634.33 98.83 0c52,0 95.86,-6.66 131.35,-20.2 35.48,-13.31 65.31,-33.77 89.21,-60.88 23.65,-27.1 41.4,-60.87 53.23,-101.28 11.83,-40.42 17.75,-87.49 17.75,-141.21zm1083.09 403.67c5.67,17.25 9.36,31.05 10.85,41.15 1.47,10.11 -0.49,17.75 -5.67,22.92 -5.42,4.93 -14.79,8.13 -28.34,9.36 -13.31,1.23 -32.03,1.72 -55.45,1.72 -24.64,0 -43.86,-0.24 -57.42,-0.98 -13.8,-0.74 -24.14,-2.22 -31.54,-4.43 -7.15,-2.22 -12.07,-5.17 -15.03,-9.12 -2.96,-3.69 -5.42,-8.87 -7.15,-15.03l-61.36 -187.79 -352.41 0 -58.89 182.61c-1.97,6.9 -4.44,12.56 -7.64,17 -2.96,4.68 -8.13,8.13 -15.04,10.84 -6.9,2.72 -16.75,4.44 -29.57,5.42 -12.81,0.98 -29.58,1.47 -50.27,1.47 -22.19,0 -39.43,-0.73 -52,-2.22 -12.56,-1.47 -21.19,-4.92 -25.88,-10.35 -4.92,-5.67 -6.65,-13.55 -5.17,-23.66 1.48,-10.11 5.17,-23.41 10.85,-40.42l287.84 -829.26c2.71,-8.13 6.16,-14.79 10.11,-19.71 3.69,-5.18 9.86,-8.87 18.24,-11.59 8.62,-2.71 20.2,-4.43 35.24,-5.17 14.78,-0.74 34.5,-0.98 59.14,-0.98 28.33,0 51.01,0.24 67.77,0.98 17,0.74 30.07,2.47 39.43,5.17 9.36,2.72 16.02,6.66 20.21,11.83 3.94,5.42 7.63,12.57 10.35,21.69l288.82 828.53zm-428.79 -686.09l-0.74 0 -130.12 397.51 262.21 0 -131.35 -397.51zm1114.14 476.37c0,49.29 -9.12,92.17 -27.36,129.38 -18.48,36.97 -43.12,67.77 -74.42,92.66 -31.54,24.64 -68.02,43.37 -109.91,55.94 -41.9,12.57 -86.75,18.73 -134.56,18.73 -32.28,0 -62.1,-2.71 -89.95,-8.13 -27.6,-5.42 -52,-11.83 -73.19,-19.47 -21.19,-7.39 -38.93,-15.28 -53.23,-23.65 -14.3,-8.38 -24.39,-15.77 -30.81,-21.94 -6.16,-6.41 -10.59,-15.52 -13.31,-27.35 -2.71,-11.83 -3.94,-28.59 -3.94,-50.77 0,-15.03 0.49,-27.35 1.47,-37.46 0.99,-10.11 2.47,-18.24 4.68,-24.64 2.22,-6.16 5.18,-10.6 8.63,-13.31 3.69,-2.72 7.88,-3.94 12.81,-3.94 6.65,0 16.26,3.94 28.58,12.07 12.32,7.89 28.09,16.75 47.31,26.37 19.23,9.61 42.39,18.48 69.25,26.37 26.62,8.13 57.67,12.07 92.91,12.07 23.16,0 43.86,-2.71 62.1,-8.13 18.49,-5.67 34.01,-13.31 46.82,-23.41 12.81,-10.11 22.43,-22.43 29.33,-37.21 6.66,-14.79 10.11,-31.3 10.11,-49.54 0,-21.19 -5.67,-39.43 -17.25,-54.46 -11.58,-15.28 -26.61,-28.58 -45.34,-40.42 -18.49,-11.83 -39.68,-22.92 -63.33,-33.27 -23.41,-10.36 -47.81,-21.19 -72.95,-32.78 -25.14,-11.59 -49.54,-24.64 -72.95,-39.43 -23.65,-14.54 -44.85,-32.04 -63.33,-52.5 -18.73,-20.45 -33.76,-44.61 -45.34,-72.7 -11.59,-27.84 -17.25,-61.36 -17.25,-100.3 0,-44.61 8.38,-84.04 24.89,-118.05 16.51,-33.76 38.93,-61.85 67.03,-84.28 28.34,-22.43 61.37,-39.18 99.57,-50.27 38.2,-11.09 78.86,-16.51 121.74,-16.51 21.94,0 44.11,1.72 66.29,5.17 22.18,3.21 42.88,7.89 62.1,13.55 19.22,5.92 36.22,12.32 51.26,19.47 14.79,7.39 24.64,13.31 29.57,18.24 4.68,4.68 7.89,8.87 9.61,12.07 1.72,3.45 3.21,7.89 4.43,13.55 1.23,5.42 1.97,12.32 2.47,20.94 0.49,8.38 0.74,18.73 0.74,31.3 0,13.8 -0.25,25.63 -0.98,35.24 -0.74,9.61 -1.97,17.5 -3.7,23.9 -1.72,6.17 -4.19,10.85 -7.15,13.55 -3.2,2.96 -7.39,4.43 -12.81,4.43 -5.17,0 -13.55,-3.45 -25.14,-10.1 -11.58,-6.66 -25.88,-14.05 -42.63,-22.18 -17,-7.89 -36.47,-15.04 -58.65,-21.44 -22.19,-6.66 -46.33,-9.86 -72.95,-9.86 -20.7,0 -38.69,2.47 -54.22,7.64 -15.28,4.92 -28.09,12.07 -38.44,20.94 -10.35,8.87 -18.24,19.47 -23.17,32.04 -5.17,12.56 -7.64,25.87 -7.64,39.67 0,20.7 5.67,38.69 17,53.72 11.34,15.28 26.62,28.83 45.6,40.66 18.97,11.58 40.66,22.67 64.81,33.03 23.9,10.35 48.55,21.44 73.69,32.78 25.14,11.58 49.78,24.64 73.68,39.43 24.15,14.78 45.59,32.28 64.57,52.74 18.73,20.45 34.01,44.36 45.59,72.21 11.58,27.59 17.25,60.13 17.25,97.58zm-3394.45 801.79c0,52.74 -8.13,99.07 -24.64,139.48 -16.26,40.66 -40.17,74.67 -71.71,102.27 -31.3,27.85 -69.74,48.8 -115.34,63.33 -45.59,14.54 -99.31,21.69 -161.17,21.69l-78.12 0 0 297.94c0,4.93 -1.47,9.12 -4.68,13.06 -3.2,3.7 -8.37,6.9 -15.52,9.36 -7.15,2.47 -16.76,4.19 -28.83,5.67 -11.83,1.48 -27.35,2.22 -45.84,2.22 -18.24,0 -33.52,-0.73 -45.84,-2.22 -12.32,-1.47 -21.93,-3.45 -29.08,-5.67 -7.15,-2.47 -12.32,-5.67 -15.04,-9.36 -2.95,-3.94 -4.43,-8.38 -4.43,-13.06l0 -840.6c0,-22.67 5.92,-39.67 17.75,-51.01 11.83,-11.33 27.35,-17 46.57,-17l220.32 0c22.18,0 43.37,0.74 63.33,2.47 19.96,1.72 43.86,5.42 71.96,10.85 27.85,5.67 56.19,15.77 84.78,30.8 28.58,14.79 53.23,33.76 73.43,56.68 20.21,22.92 35.73,49.54 46.33,80.34 10.6,30.56 15.77,64.82 15.77,102.77zm-198.13 13.8c0,-32.78 -5.92,-59.89 -17.5,-81.08 -11.58,-21.19 -25.88,-36.97 -42.88,-47.07 -17,-10.11 -34.75,-16.51 -53.23,-19.22 -18.73,-2.71 -37.95,-3.94 -57.91,-3.94l-81.33 0 0 317.9 85.76 0c30.56,0 55.94,-4.19 76.64,-12.32 20.46,-8.13 37.47,-19.72 50.52,-34.5 13.06,-14.55 22.92,-32.28 29.83,-52.75 6.65,-20.45 10.1,-42.87 10.1,-67.03zm857.85 557.44c0,14.3 -0.49,26.62 -1.72,36.47 -1.23,9.86 -3.2,17.99 -5.42,24.4 -2.46,6.65 -5.42,11.33 -9.11,14.05 -3.7,2.96 -7.89,4.43 -12.57,4.43l-428.06 0c-15.77,0 -29.08,-4.68 -39.92,-14.05 -10.84,-9.36 -16.26,-24.64 -16.26,-45.84l0 -848.73c0,-4.68 1.48,-9.11 4.68,-13.06 3.21,-3.69 8.38,-6.9 15.53,-9.36 7.14,-2.46 17,-4.18 29.33,-5.67 12.32,-1.47 27.6,-2.22 45.83,-2.22 18.74,0 34.26,0.74 46.33,2.22 11.83,1.48 21.69,3.21 28.83,5.67 7.15,2.47 12.32,5.67 15.53,9.36 3.2,3.95 4.68,8.38 4.68,13.06l0 751.88 293.5 0c4.68,0 9.12,1.23 12.57,3.95 3.7,2.71 6.66,6.9 9.11,13.06 2.47,5.92 4.19,13.8 5.42,23.9 1.23,9.86 1.72,21.94 1.72,36.47zm877.32 8.63c5.67,17.25 9.36,31.05 10.85,41.15 1.47,10.11 -0.49,17.75 -5.67,22.92 -5.42,4.93 -14.79,8.13 -28.34,9.36 -13.31,1.23 -32.03,1.72 -55.45,1.72 -24.64,0 -43.86,-0.24 -57.42,-0.98 -13.8,-0.74 -24.14,-2.22 -31.54,-4.43 -7.15,-2.22 -12.07,-5.17 -15.03,-9.12 -2.96,-3.69 -5.42,-8.87 -7.15,-15.03l-61.36 -187.79 -352.41 0 -58.89 182.61c-1.97,6.9 -4.44,12.56 -7.64,17 -2.96,4.68 -8.13,8.13 -15.04,10.84 -6.9,2.72 -16.75,4.44 -29.57,5.42 -12.81,0.98 -29.58,1.47 -50.27,1.47 -22.19,0 -39.43,-0.73 -52,-2.22 -12.56,-1.47 -21.19,-4.92 -25.88,-10.35 -4.92,-5.67 -6.65,-13.55 -5.17,-23.66 1.48,-10.11 5.17,-23.41 10.85,-40.42l287.84 -829.26c2.71,-8.13 6.16,-14.79 10.11,-19.71 3.69,-5.18 9.86,-8.87 18.24,-11.59 8.62,-2.71 20.2,-4.43 35.24,-5.17 14.78,-0.74 34.5,-0.98 59.14,-0.98 28.33,0 51.01,0.24 67.77,0.98 17,0.74 30.07,2.47 39.43,5.17 9.36,2.72 16.02,6.66 20.21,11.83 3.94,5.42 7.63,12.57 10.35,21.69l288.82 828.53zm-428.79 -686.09l-0.74 0 -130.12 397.51 262.21 0 -131.35 -397.51zm1114.14 476.37c0,49.29 -9.12,92.17 -27.36,129.38 -18.48,36.97 -43.12,67.77 -74.42,92.66 -31.54,24.64 -68.02,43.37 -109.91,55.94 -41.9,12.57 -86.75,18.73 -134.56,18.73 -32.28,0 -62.1,-2.71 -89.95,-8.13 -27.6,-5.42 -52,-11.83 -73.19,-19.47 -21.19,-7.39 -38.93,-15.28 -53.23,-23.65 -14.3,-8.38 -24.39,-15.77 -30.81,-21.94 -6.16,-6.41 -10.59,-15.52 -13.31,-27.35 -2.71,-11.83 -3.94,-28.59 -3.94,-50.77 0,-15.03 0.49,-27.35 1.47,-37.46 0.99,-10.11 2.47,-18.24 4.68,-24.64 2.22,-6.16 5.18,-10.6 8.63,-13.31 3.69,-2.72 7.88,-3.94 12.81,-3.94 6.65,0 16.26,3.94 28.58,12.07 12.32,7.89 28.09,16.75 47.31,26.37 19.23,9.61 42.39,18.48 69.25,26.37 26.62,8.13 57.67,12.07 92.91,12.07 23.16,0 43.86,-2.71 62.1,-8.13 18.49,-5.67 34.01,-13.31 46.82,-23.41 12.81,-10.11 22.43,-22.43 29.33,-37.21 6.66,-14.79 10.11,-31.3 10.11,-49.54 0,-21.19 -5.67,-39.43 -17.25,-54.46 -11.58,-15.28 -26.61,-28.58 -45.34,-40.42 -18.49,-11.83 -39.68,-22.92 -63.33,-33.27 -23.41,-10.36 -47.81,-21.19 -72.95,-32.78 -25.14,-11.59 -49.54,-24.64 -72.95,-39.43 -23.65,-14.54 -44.85,-32.04 -63.33,-52.5 -18.73,-20.45 -33.76,-44.61 -45.34,-72.7 -11.59,-27.84 -17.25,-61.36 -17.25,-100.3 0,-44.61 8.38,-84.04 24.89,-118.05 16.51,-33.76 38.93,-61.85 67.03,-84.28 28.34,-22.43 61.37,-39.18 99.57,-50.27 38.2,-11.09 78.86,-16.51 121.74,-16.51 21.94,0 44.11,1.72 66.29,5.17 22.18,3.21 42.88,7.89 62.1,13.55 19.22,5.92 36.22,12.32 51.26,19.47 14.79,7.39 24.64,13.31 29.57,18.24 4.68,4.68 7.89,8.87 9.61,12.07 1.72,3.45 3.21,7.89 4.43,13.55 1.23,5.42 1.97,12.32 2.47,20.94 0.49,8.38 0.74,18.73 0.74,31.3 0,13.8 -0.25,25.63 -0.98,35.24 -0.74,9.61 -1.97,17.5 -3.7,23.9 -1.72,6.17 -4.19,10.85 -7.15,13.55 -3.2,2.96 -7.39,4.43 -12.81,4.43 -5.17,0 -13.55,-3.45 -25.14,-10.1 -11.58,-6.66 -25.88,-14.05 -42.63,-22.18 -17,-7.89 -36.47,-15.04 -58.65,-21.44 -22.19,-6.66 -46.33,-9.86 -72.95,-9.86 -20.7,0 -38.69,2.47 -54.22,7.64 -15.28,4.92 -28.09,12.07 -38.44,20.94 -10.35,8.87 -18.24,19.47 -23.17,32.04 -5.17,12.56 -7.64,25.87 -7.64,39.67 0,20.7 5.67,38.69 17,53.72 11.34,15.28 26.62,28.83 45.6,40.66 18.97,11.58 40.66,22.67 64.81,33.03 23.9,10.35 48.55,21.44 73.69,32.78 25.14,11.58 49.78,24.64 73.68,39.43 24.15,14.78 45.59,32.28 64.57,52.74 18.73,20.45 34.01,44.36 45.59,72.21 11.58,27.59 17.25,60.13 17.25,97.58zm750.89 -576.17c0,14.05 -0.49,25.88 -1.72,35.98 -1.23,9.86 -2.96,17.75 -5.42,23.66 -2.46,6.16 -5.42,10.6 -9.11,13.31 -3.45,2.96 -7.64,4.44 -11.83,4.44l-233.63 0 0 753.36c0,4.68 -1.47,9.12 -4.68,13.06 -3.2,3.7 -8.37,6.9 -15.52,9.36 -7.15,2.22 -17,4.19 -29.33,5.67 -12.32,1.48 -27.6,2.22 -45.84,2.22 -18.24,0 -33.52,-0.73 -45.84,-2.22 -12.32,-1.47 -22.18,-3.45 -29.33,-5.67 -7.15,-2.47 -12.32,-5.67 -15.52,-9.36 -3.21,-3.94 -4.68,-8.38 -4.68,-13.06l0 -753.36 -233.63 0c-4.68,0 -8.87,-1.48 -12.32,-4.44 -3.21,-2.71 -6.17,-7.15 -8.62,-13.31 -2.22,-5.92 -4.19,-13.8 -5.42,-23.66 -1.23,-10.11 -1.72,-21.93 -1.72,-35.98 0,-14.29 0.49,-26.61 1.72,-36.72 1.23,-10.11 3.2,-18.24 5.42,-24.15 2.46,-6.16 5.42,-10.35 8.62,-13.06 3.45,-2.72 7.64,-3.95 12.32,-3.95l657.99 0c4.19,0 8.13,1.23 11.83,3.95 3.7,2.71 6.66,6.9 9.11,13.06 2.47,5.92 4.19,14.05 5.42,24.15 1.23,10.11 1.72,22.43 1.72,36.72zm301.89 830.75c0,4.68 -1.48,9.12 -4.68,13.06 -3.21,3.7 -8.38,6.9 -15.53,9.36 -7.15,2.22 -17,4.19 -28.83,5.67 -12.07,1.48 -27.59,2.22 -46.33,2.22 -18.23,0 -33.51,-0.73 -45.83,-2.22 -12.32,-1.47 -22.19,-3.45 -29.33,-5.67 -7.15,-2.47 -12.32,-5.67 -15.53,-9.36 -3.2,-3.94 -4.68,-8.38 -4.68,-13.06l0 -882.74c0,-4.68 1.48,-9.11 4.68,-13.06 3.21,-3.69 8.38,-6.9 16.02,-9.36 7.39,-2.46 17,-4.18 29.08,-5.67 12.08,-1.47 27.36,-2.22 45.59,-2.22 18.74,0 34.26,0.74 46.33,2.22 11.83,1.48 21.69,3.21 28.83,5.67 7.15,2.47 12.32,5.67 15.53,9.36 3.2,3.95 4.68,8.38 4.68,13.06l0 882.74zm849.72 -115.33c0,12.07 -0.24,22.43 -0.98,30.8 -0.74,8.38 -1.97,15.77 -3.45,21.69 -1.23,6.17 -3.21,11.34 -5.67,15.77 -2.47,4.19 -6.17,9.12 -11.59,14.55 -5.17,5.42 -15.52,12.56 -30.56,21.19 -15.27,8.38 -33.76,16.76 -55.69,24.64 -21.93,7.64 -46.82,14.3 -74.91,19.47 -28.09,5.17 -58.65,7.89 -91.43,7.89 -63.83,0 -121.5,-9.86 -173,-29.58 -51.5,-19.71 -95.37,-49.29 -131.35,-88.47 -36.22,-39.18 -63.83,-87.98 -83.05,-146.88 -19.23,-58.65 -28.83,-126.91 -28.83,-204.78 0,-79.36 10.6,-149.84 31.78,-211.45 21.19,-61.61 50.77,-113.36 88.72,-155.25 37.96,-41.9 83.55,-73.44 136.77,-95.13 52.99,-21.69 111.64,-32.53 175.71,-32.53 25.88,0 50.77,2.22 74.92,6.66 24.15,4.19 46.33,9.86 66.78,17 20.45,6.9 38.69,15.04 55.2,24.15 16.26,9.36 27.84,17.25 34.25,23.66 6.41,6.65 10.85,12.07 13.31,16.26 2.46,4.43 4.43,9.86 5.67,16.51 1.47,6.9 2.71,14.79 3.45,23.9 0.74,9.11 0.98,20.21 0.98,33.76 0,14.3 -0.49,26.62 -1.47,36.72 -0.98,10.11 -2.71,18.24 -4.93,24.39 -2.46,6.17 -5.42,10.85 -8.62,13.55 -3.45,2.96 -7.39,4.44 -11.58,4.44 -7.15,0 -16.26,-4.19 -27.36,-12.57 -11.09,-8.38 -25.38,-17.75 -42.87,-28.09 -17.5,-10.35 -38.45,-19.72 -62.84,-28.09 -24.15,-8.38 -52.99,-12.57 -86.75,-12.57 -36.97,0 -69.99,7.64 -99.08,22.68 -29.08,15.28 -53.72,36.72 -74.17,64.81 -20.45,28.34 -35.98,62.35 -46.58,102.27 -10.6,39.67 -15.77,84.77 -15.77,134.8 0,54.71 5.67,102.27 17,142.44 11.34,39.92 27.36,73.19 48.3,99.07 20.7,25.88 46.08,45.35 75.66,57.91 29.58,12.82 62.84,19.23 99.81,19.23 33.52,0 62.59,-3.95 87.24,-11.83 24.39,-7.89 45.35,-16.76 62.84,-26.13 17.75,-9.61 32.03,-18.24 43.37,-25.88 11.34,-7.64 19.96,-11.58 26.37,-11.58 4.68,0 8.62,0.98 11.34,2.96 2.96,1.97 5.42,5.67 7.39,11.58 1.72,5.67 3.21,13.8 4.19,24.15 0.98,10.6 1.47,24.4 1.47,41.9zm691.02 -139.24c0,49.29 -9.12,92.17 -27.36,129.38 -18.48,36.97 -43.12,67.77 -74.42,92.66 -31.54,24.64 -68.02,43.37 -109.91,55.94 -41.9,12.57 -86.75,18.73 -134.56,18.73 -32.28,0 -62.1,-2.71 -89.95,-8.13 -27.6,-5.42 -52,-11.83 -73.19,-19.47 -21.19,-7.39 -38.93,-15.28 -53.23,-23.65 -14.3,-8.38 -24.39,-15.77 -30.81,-21.94 -6.16,-6.41 -10.59,-15.52 -13.31,-27.35 -2.71,-11.83 -3.94,-28.59 -3.94,-50.77 0,-15.03 0.49,-27.35 1.47,-37.46 0.99,-10.11 2.47,-18.24 4.68,-24.64 2.22,-6.16 5.18,-10.6 8.63,-13.31 3.69,-2.72 7.88,-3.94 12.81,-3.94 6.65,0 16.26,3.94 28.58,12.07 12.32,7.89 28.09,16.75 47.31,26.37 19.23,9.61 42.39,18.48 69.25,26.37 26.62,8.13 57.67,12.07 92.91,12.07 23.16,0 43.86,-2.71 62.1,-8.13 18.49,-5.67 34.01,-13.31 46.82,-23.41 12.81,-10.11 22.43,-22.43 29.33,-37.21 6.66,-14.79 10.11,-31.3 10.11,-49.54 0,-21.19 -5.67,-39.43 -17.25,-54.46 -11.58,-15.28 -26.61,-28.58 -45.34,-40.42 -18.49,-11.83 -39.68,-22.92 -63.33,-33.27 -23.41,-10.36 -47.81,-21.19 -72.95,-32.78 -25.14,-11.59 -49.54,-24.64 -72.95,-39.43 -23.65,-14.54 -44.85,-32.04 -63.33,-52.5 -18.73,-20.45 -33.76,-44.61 -45.34,-72.7 -11.59,-27.84 -17.25,-61.36 -17.25,-100.3 0,-44.61 8.38,-84.04 24.89,-118.05 16.51,-33.76 38.93,-61.85 67.03,-84.28 28.34,-22.43 61.37,-39.18 99.57,-50.27 38.2,-11.09 78.86,-16.51 121.74,-16.51 21.94,0 44.11,1.72 66.29,5.17 22.18,3.21 42.88,7.89 62.1,13.55 19.22,5.92 36.22,12.32 51.26,19.47 14.79,7.39 24.64,13.31 29.57,18.24 4.68,4.68 7.89,8.87 9.61,12.07 1.72,3.45 3.21,7.89 4.43,13.55 1.23,5.42 1.97,12.32 2.47,20.94 0.49,8.38 0.74,18.73 0.74,31.3 0,13.8 -0.25,25.63 -0.98,35.24 -0.74,9.61 -1.97,17.5 -3.7,23.9 -1.72,6.17 -4.19,10.85 -7.15,13.55 -3.2,2.96 -7.39,4.43 -12.81,4.43 -5.17,0 -13.55,-3.45 -25.14,-10.1 -11.58,-6.66 -25.88,-14.05 -42.63,-22.18 -17,-7.89 -36.47,-15.04 -58.65,-21.44 -22.19,-6.66 -46.33,-9.86 -72.95,-9.86 -20.7,0 -38.69,2.47 -54.22,7.64 -15.28,4.92 -28.09,12.07 -38.44,20.94 -10.35,8.87 -18.24,19.47 -23.17,32.04 -5.17,12.56 -7.64,25.87 -7.64,39.67 0,20.7 5.67,38.69 17,53.72 11.34,15.28 26.62,28.83 45.6,40.66 18.97,11.58 40.66,22.67 64.81,33.03 23.9,10.35 48.55,21.44 73.69,32.78 25.14,11.58 49.78,24.64 73.68,39.43 24.15,14.78 45.59,32.28 64.57,52.74 18.73,20.45 34.01,44.36 45.59,72.21 11.58,27.59 17.25,60.13 17.25,97.58z"/>
 </g>
</svg>
